<?xml version="1.0" encoding="UTF-8" standalone="no"?>
<!DOCTYPE svg PUBLIC "-//W3C//DTD SVG 1.1//EN"
 "http://www.w3.org/Graphics/SVG/1.1/DTD/svg11.dtd">
<!-- Generated by graphviz version 2.40.1 (20161225.0304)
 -->
<!-- Title: dependency&#45;cruiser output Pages: 1 -->
<svg width="384pt" height="144pt"
 viewBox="0.00 0.00 384.00 144.00" xmlns="http://www.w3.org/2000/svg" xmlns:xlink="http://www.w3.org/1999/xlink">
<g id="graph0" class="graph" transform="scale(1 1) rotate(0) translate(4 140)">
<title>dependency&#45;cruiser output</title>
<polygon fill="#ffffff" stroke="transparent" points="-4,4 -4,-140 380,-140 380,4 -4,4"/>
<g id="clust1" class="cluster">
<title>cluster_src</title>
<path fill="#ffffff" stroke="#000000" stroke-width="2" d="M20,-8C20,-8 356,-8 356,-8 362,-8 368,-14 368,-20 368,-20 368,-116 368,-116 368,-122 362,-128 356,-128 356,-128 20,-128 20,-128 14,-128 8,-122 8,-116 8,-116 8,-20 8,-20 8,-14 14,-8 20,-8"/>
<text text-anchor="middle" x="188" y="-116.8" font-family="Helvetica,sans-Serif" font-weight="bold" font-size="9.00" fill="#000000">src</text>
</g>
<g id="clust2" class="cluster">
<title>cluster_src/aaa</title>
<path fill="#ffffff" stroke="#000000" stroke-width="2" d="M224,-16C224,-16 348,-16 348,-16 354,-16 360,-22 360,-28 360,-28 360,-90 360,-90 360,-96 354,-102 348,-102 348,-102 224,-102 224,-102 218,-102 212,-96 212,-90 212,-90 212,-28 212,-28 212,-22 218,-16 224,-16"/>
<text text-anchor="middle" x="286" y="-90.8" font-family="Helvetica,sans-Serif" font-weight="bold" font-size="9.00" fill="#000000">aaa</text>
</g>
<g id="clust3" class="cluster">
<title>cluster_src/aaa/bbb</title>
<path fill="#ffffff" stroke="#000000" stroke-width="2" d="M294,-24C294,-24 340,-24 340,-24 346,-24 352,-30 352,-36 352,-36 352,-64 352,-64 352,-70 346,-76 340,-76 340,-76 294,-76 294,-76 288,-76 282,-70 282,-64 282,-64 282,-36 282,-36 282,-30 288,-24 294,-24"/>
<text text-anchor="middle" x="317" y="-64.8" font-family="Helvetica,sans-Serif" font-weight="bold" font-size="9.00" fill="#000000">bbb</text>
</g>
<!-- src/aaa/bbb/cc.ts -->
<g id="node1" class="node">
<title>src/aaa/bbb/cc.ts</title>
<g id="a_node1"><a xlink:href="src/aaa/bbb/cc.ts" xlink:title="cc.ts">
<path fill="#ddfeff" stroke="#000000" d="M338,-50C338,-50 296,-50 296,-50 293,-50 290,-47 290,-44 290,-44 290,-38 290,-38 290,-35 293,-32 296,-32 296,-32 338,-32 338,-32 341,-32 344,-35 344,-38 344,-38 344,-44 344,-44 344,-47 341,-50 338,-50"/>
<text text-anchor="start" x="306" y="-38.8" font-family="Helvetica,sans-Serif" font-size="9.00" fill="#000000">cc.ts</text>
</a>
</g>
</g>
<!-- src/aaa/index.ts -->
<g id="node2" class="node">
<title>src/aaa/index.ts</title>
<g id="a_node2"><a xlink:href="src/aaa/index.ts" xlink:title="index.ts">
<path fill="#ddfeff" stroke="#000000" d="M268,-50C268,-50 226,-50 226,-50 223,-50 220,-47 220,-44 220,-44 220,-38 220,-38 220,-35 223,-32 226,-32 226,-32 268,-32 268,-32 271,-32 274,-35 274,-38 274,-38 274,-44 274,-44 274,-47 271,-50 268,-50"/>
<text text-anchor="start" x="228.5" y="-38.8" font-family="Helvetica,sans-Serif" font-size="9.00" fill="#000000">index.ts</text>
</a>
</g>
</g>
<!-- src/aaa/index.ts&#45;&gt;src/aaa/bbb/cc.ts -->
<g id="edge1" class="edge">
<title>src/aaa/index.ts&#45;&gt;src/aaa/bbb/cc.ts</title>
<path fill="none" stroke="#000000" stroke-width="2" stroke-opacity="0.200000" d="M274.2643,-41C277.273,-41 280.3619,-41 283.4361,-41"/>
<polygon fill="#000000" fill-opacity="0.200000" stroke="#000000" stroke-width="2" stroke-opacity="0.200000" points="283.695,-43.1001 289.695,-41 283.695,-38.9001 283.695,-43.1001"/>
</g>
<!-- src/bin.ts -->
<g id="node3" class="node">
<title>src/bin.ts</title>
<g id="a_node3"><a xlink:href="src/bin.ts" xlink:title="bin.ts">
<path fill="#ddfeff" stroke="#000000" d="M131,-42C131,-42 89,-42 89,-42 86,-42 83,-39 83,-36 83,-36 83,-30 83,-30 83,-27 86,-24 89,-24 89,-24 131,-24 131,-24 134,-24 137,-27 137,-30 137,-30 137,-36 137,-36 137,-39 134,-42 131,-42"/>
<text text-anchor="start" x="97" y="-30.8" font-family="Helvetica,sans-Serif" font-size="9.00" fill="#000000">bin.ts</text>
</a>
</g>
</g>
<!-- src/bin.ts&#45;&gt;src/aaa/index.ts -->
<g id="edge2" class="edge">
<title>src/bin.ts&#45;&gt;src/aaa/index.ts</title>
<path fill="none" stroke="#000000" stroke-width="2" stroke-opacity="0.200000" d="M137.0668,-34.5805C159.1145,-35.868 190.3353,-37.6911 213.8749,-39.0657"/>
<polygon fill="#000000" fill-opacity="0.200000" stroke="#000000" stroke-width="2" stroke-opacity="0.200000" points="213.8772,-41.1693 219.9894,-39.4227 214.1221,-36.9765 213.8772,-41.1693"/>
</g>
<!-- src/run.ts -->
<g id="node4" class="node">
<title>src/run.ts</title>
<g id="a_node4"><a xlink:href="src/run.ts" xlink:title="run.ts">
<path fill="#ddfeff" stroke="#000000" d="M198,-64C198,-64 156,-64 156,-64 153,-64 150,-61 150,-58 150,-58 150,-52 150,-52 150,-49 153,-46 156,-46 156,-46 198,-46 198,-46 201,-46 204,-49 204,-52 204,-52 204,-58 204,-58 204,-61 201,-64 198,-64"/>
<text text-anchor="start" x="163" y="-52.8" font-family="Helvetica,sans-Serif" font-size="9.00" fill="#000000">run.ts</text>
</a>
</g>
</g>
<!-- src/bin.ts&#45;&gt;src/run.ts -->
<g id="edge3" class="edge">
<title>src/bin.ts&#45;&gt;src/run.ts</title>
<path fill="none" stroke="#000000" stroke-width="2" stroke-opacity="0.200000" d="M137.2515,-41.9482C139.4841,-42.6813 141.7551,-43.427 144.0229,-44.1717"/>
<polygon fill="#000000" fill-opacity="0.200000" stroke="#000000" stroke-width="2" stroke-opacity="0.200000" points="143.6342,-46.2543 149.9899,-46.131 144.9445,-42.2639 143.6342,-46.2543"/>
</g>
<!-- src/run.ts&#45;&gt;src/aaa/index.ts -->
<g id="edge6" class="edge">
<title>src/run.ts&#45;&gt;src/aaa/index.ts</title>
<path fill="none" stroke="#000000" stroke-width="2" stroke-opacity="0.200000" d="M204.2643,-49.5471C207.273,-48.9454 210.3619,-48.3276 213.4361,-47.7128"/>
<polygon fill="#000000" fill-opacity="0.200000" stroke="#000000" stroke-width="2" stroke-opacity="0.200000" points="214.2234,-49.697 219.695,-46.461 213.3996,-45.5786 214.2234,-49.697"/>
</g>
<!-- src/index.ts -->
<g id="node5" class="node">
<title>src/index.ts</title>
<g id="a_node5"><a xlink:href="src/index.ts" xlink:title="index.ts">
<path fill="#ddfeff" stroke="#000000" d="M64,-53C64,-53 22,-53 22,-53 19,-53 16,-50 16,-47 16,-47 16,-41 16,-41 16,-38 19,-35 22,-35 22,-35 64,-35 64,-35 67,-35 70,-38 70,-41 70,-41 70,-47 70,-47 70,-50 67,-53 64,-53"/>
<text text-anchor="start" x="24.5" y="-41.8" font-family="Helvetica,sans-Serif" font-size="9.00" fill="#000000">index.ts</text>
</a>
</g>
</g>
<!-- src/index.ts&#45;&gt;src/bin.ts -->
<g id="edge4" class="edge">
<title>src/index.ts&#45;&gt;src/bin.ts</title>
<path fill="none" stroke="#000000" stroke-width="2" stroke-opacity="0.200000" d="M70.2515,-39.5259C72.4841,-39.1593 74.7551,-38.7865 77.0229,-38.4141"/>
<polygon fill="#000000" fill-opacity="0.200000" stroke="#000000" stroke-width="2" stroke-opacity="0.200000" points="77.4094,-40.4789 82.9899,-37.4345 76.7289,-36.3344 77.4094,-40.4789"/>
</g>
<!-- src/index.ts&#45;&gt;src/run.ts -->
<g id="edge5" class="edge">
<title>src/index.ts&#45;&gt;src/run.ts</title>
<path fill="none" stroke="#000000" stroke-width="2" stroke-opacity="0.200000" d="M70.1022,-46.804C74.415,-47.2231 78.8284,-47.6362 83,-48 103.0371,-49.7476 125.5013,-51.4307 143.4436,-52.7083"/>
<polygon fill="#000000" fill-opacity="0.200000" stroke="#000000" stroke-width="2" stroke-opacity="0.200000" points="143.7033,-54.8318 149.8365,-53.16 143.9994,-50.6423 143.7033,-54.8318"/>
</g>
</g>
</svg>
